<svg id="全体レイアウト" xmlns="http://www.w3.org/2000/svg" xmlns:xlink="http://www.w3.org/1999/xlink" viewBox="0 0 480.6 229">
  <defs>
    <style>
      .cls-1, .cls-2, .cls-3 {
        fill: #fff;
      }

      .cls-1, .cls-3 {
        stroke: #000;
        stroke-miterlimit: 10;
      }

      .cls-3 {
        stroke-width: 0.25px;
      }
    </style>
    <symbol id="サイネリア葉_黒" data-name="サイネリア葉_黒" viewBox="0 0 419.86 430">
      <path d="M104.11,198l16-23-31-39-15-30,7-9-7-21,29-6,2-20h21V33h18l14-16c14-10,27-17,39-17s45,24,49,38c14-2,81,11,94,27s-3,42-7,62,1,25,12,34,27-7,36,1,4,29,8,36,13,12,10,22l-16,21c-1.33,19,8.54,22.33,16.6,31.67,0,13.33,24.73,56,19.4,71.33-12.67,14-66,17.33-78.67,22.67l-37.33-7.33-22,12.67-17.33-4-26,19.33c-6.67-16-14.78-22-27.72-22-8.94,16-33.61,54.67-44.28,64.67-16-1.33-63.33-48.67-68-62.67-16.67-6.67-33.33-1.33-42,3.33l-54,.67c-7.33-31.33,10-82.67,16.67-94L3.78,254c4.67-10,14.67-9.33,25.33-16l6-31.33,16-3.33,14.67-12Z"/>
      <polygon class="cls-2" points="178.93 142.02 163.33 153.95 117.45 180.22 113.78 198 196.36 143.86 298.68 88.8 178.93 142.02"/>
      <polygon class="cls-2" points="173.08 219.34 156.03 211.29 113.42 204.67 101.11 226.45 168.81 354.28 113.42 219.34 149.4 219.34 166.45 224.55 349.68 305.99 173.08 219.34"/>
    </symbol>
    <symbol id="サイネリア花" data-name="サイネリア花" viewBox="0 0 523.26 518.44">
      <g>
        <path class="cls-1" d="M465.53,437.42c4-17.76-10.45-57.54-49.72-94.13S334.73,281.4,313.08,277l-15.55,14.25c-2.29,19.88,25.24,80.13,47.37,104s59.91,56.87,91.8,59.76l6.51-4.3-5-11.17,11.25,8.34,5.72-3.23-3.25-9Z"/>
        <path class="cls-1" d="M40.65,145.11c.61,18.2,24.72,53,72,78.41s94.15,39.26,116.21,38l11.42-17.73C237.44,224,195.5,172.7,168,155.22s-72.4-39.79-104-34.48l-5.2,5.82,7.67,9.54-13-5.21-4.71,4.58,5.44,7.93Z"/>
        <path class="cls-1" d="M.66,267.84C9.72,283.64,47.32,303.1,101,303.42S202.57,294,221.46,282.59l1.78-21c-11.78-16.18-72.84-41.86-105.3-44.43s-82.6-1.26-108,18.21l-1.88,7.57,11.24,4.84L5.38,249.24l-2,6.25,8.52,4.46Z"/>
        <path class="cls-1" d="M17.11,365.25C32,375.7,74.33,377.34,123,354.82s88-51.67,100.2-70.05L215.93,265c-17.54-9.64-83.72-6.93-114.2,4.52s-75.3,34-90,62.38l1.52,7.65,12.23-.4-12,7.26.83,6.51,9.61.41Z"/>
        <path class="cls-1" d="M200.08,517.84c17.49-5.08,45.26-37,58.22-89.12s14.81-100.93,8.14-122l-20-6.69c-18.5,7.64-57.84,60.93-68,91.86s-20.69,80-7.76,109.26l6.92,3.61,7.35-9.79-1.84,13.88,5.6,3.43,6.34-7.23Z"/>
        <path class="cls-1" d="M485.54,124.27c-16-8.72-58.21-5.64-104.12,22.17s-81.65,61.14-91.77,80.78l9.47,18.84c18.5,7.62,84-2.44,113-17.22s71.05-42.14,82.53-72l-2.36-7.44-12.11,1.76,11.09-8.55-1.55-6.38-9.59.66Z"/>
        <path class="cls-1" d="M517.68,183.62c-12.85-12.9-54.21-21.94-106.13-8.32s-95.66,35.43-110.94,51.38l3.73,20.76C319.92,260,385.56,269,417.57,263s80.1-20.22,99.59-45.61l-.15-7.8-12.11-1.75,13.06-5,.33-6.56-9.38-2.09Z"/>
        <path class="cls-1" d="M85.9,77.56c-2.71,18,14.68,56.61,56.55,90.19s85.45,55.72,107.36,58.48l14.45-15.36c.81-20-31.1-78-54.94-100.22s-64-52.28-96-52.81l-6.17,4.77L113,73.39l-11.83-7.48-5.46,3.65,3.91,8.78Z"/>
        <path class="cls-1" d="M266.85.66c-15.54,9.48-34,47.61-32.83,101.26s12.16,101.28,24.11,119.86L279.19,223C295,210.78,319,149,320.73,116.53s-1-82.6-21.15-107.48L292,7.38l-4.53,11.37L285.57,4.88,279.27,3l-4.22,8.64Z"/>
        <path class="cls-1" d="M522.62,297.15c-7.33-16.67-42.67-40-96-46s-102-1.42-122,8l-4,20.71c10,17.33,68,49.33,100,55.33s82,10,109.33-6.67l2.67-7.33-10.67-6h14l2.67-6-8-5.33Z"/>
        <path class="cls-1" d="M137.33,484.87c18.19-.72,52.84-25.06,78-72.49s38.66-94.4,37.26-116.44l-17.81-11.3c-19.79,3-70.8,45.22-88.1,72.8s-39.33,72.65-33.82,104.18l5.85,5.17,9.49-7.73-5.13,13,4.61,4.68,7.89-5.49Z"/>
        <path class="cls-1" d="M350.3,497.75c11.71-13.94,17-56-1.17-106.45s-43.81-92.12-61.06-105.92L267.73,291c-11.13,16.63-14.2,82.8-5.44,114.16s27.27,78,54.3,95.13l7.76-.85.67-12.22,6.19,12.56,6.56-.26,1.25-9.53Z"/>
        <path class="cls-1" d="M387.68,20.93c-18.21-.08-53.89,22.72-81.06,69s-42.77,92.61-42.34,114.7l17.29,12.07c19.9-2.09,72.72-42.07,91.21-68.86S415.26,77,411.15,45.25l-5.62-5.42-9.82,7.31,5.69-12.79L397,29.47l-8.13,5.14Z"/>
      </g>
      <g>
        <circle cx="263.28" cy="257.52" r="47.13"/>
        <polygon class="cls-2" points="274.93 259.37 270.17 262.84 271.99 268.44 277.88 268.44 279.7 262.84 274.93 259.37"/>
        <polygon class="cls-2" points="268.82 270.3 264.05 273.76 265.87 279.36 271.76 279.36 273.59 273.76 268.82 270.3"/>
        <polygon class="cls-2" points="255.47 270.16 250.71 273.63 252.53 279.23 258.42 279.23 260.24 273.63 255.47 270.16"/>
        <polygon class="cls-2" points="270.17 228.51 265.4 231.98 267.22 237.58 273.11 237.58 274.93 231.98 270.17 228.51"/>
        <polygon class="cls-2" points="253.13 228.04 248.36 231.5 250.18 237.1 256.07 237.1 257.89 231.5 253.13 228.04"/>
        <polygon class="cls-2" points="245.94 248.86 241.17 252.33 242.99 257.93 248.89 257.93 250.71 252.33 245.94 248.86"/>
        <polygon class="cls-2" points="251.6 238.95 246.84 242.41 248.66 248.02 254.55 248.02 256.37 242.41 251.6 238.95"/>
        <polygon class="cls-2" points="261.95 244.6 257.18 248.07 259 253.67 264.9 253.67 266.72 248.07 261.95 244.6"/>
        <polygon class="cls-2" points="259.28 254.62 254.52 258.08 256.34 263.68 262.23 263.68 264.05 258.08 259.28 254.62"/>
        <polygon class="cls-2" points="265.79 261.3 261.02 264.77 262.84 270.37 268.74 270.37 270.56 264.77 265.79 261.3"/>
        <polygon class="cls-2" points="261.02 235.37 256.26 238.84 258.08 244.44 263.97 244.44 265.79 238.84 261.02 235.37"/>
        <polygon class="cls-2" points="270.84 239.43 266.07 242.89 267.89 248.5 273.79 248.5 275.61 242.89 270.84 239.43"/>
        <polygon class="cls-2" points="275.89 248.86 271.12 252.33 272.94 257.93 278.83 257.93 280.65 252.33 275.89 248.86"/>
        <polygon class="cls-2" points="250.71 259.85 245.94 263.31 247.76 268.92 253.65 268.92 255.47 263.31 250.71 259.85"/>
        <polygon class="cls-2" points="279.7 273.55 274.93 277.02 276.75 282.62 282.65 282.62 284.47 277.02 279.7 273.55"/>
        <polygon class="cls-2" points="265.41 284.13 260.64 287.6 262.46 293.2 268.36 293.2 270.18 287.6 265.41 284.13"/>
        <polygon class="cls-2" points="285.84 263.68 281.07 267.15 282.89 272.75 288.79 272.75 290.61 267.15 285.84 263.68"/>
        <polygon class="cls-2" points="287.38 253.05 283.51 257.49 286.54 262.55 292.29 261.22 292.8 255.35 287.38 253.05"/>
        <polygon class="cls-2" points="283.34 241.93 279.47 246.37 282.51 251.43 288.25 250.1 288.77 244.23 283.34 241.93"/>
        <polygon class="cls-2" points="278.93 231.57 274.75 235.73 277.42 240.99 283.24 240.07 284.17 234.25 278.93 231.57"/>
        <polygon class="cls-2" points="261.18 223.56 257 227.72 259.67 232.98 265.49 232.07 266.42 226.25 261.18 223.56"/>
        <polygon class="cls-2" points="241.37 233.46 238.71 238.71 242.89 242.87 248.13 240.18 247.19 234.36 241.37 233.46"/>
        <polygon class="cls-2" points="239.04 250.08 233.28 248.8 230.29 253.88 234.19 258.29 239.6 255.94 239.04 250.08"/>
        <polygon class="cls-2" points="238.12 262.45 233.35 265.92 235.17 271.52 241.06 271.52 242.88 265.92 238.12 262.45"/>
        <polygon class="cls-2" points="244.37 273.07 239.6 276.54 241.42 282.14 247.31 282.14 249.13 276.54 244.37 273.07"/>
        <polygon class="cls-2" points="251.6 281.43 246.84 284.9 248.66 290.5 254.55 290.5 256.37 284.9 251.6 281.43"/>
        <g>
          <polygon class="cls-3" points="280.04 282.18 288.81 287.54 298.2 283.36 295.81 293.36 302.68 300.99 292.44 301.81 287.3 310.71 283.36 301.21 273.31 299.08 281.12 292.4 280.04 282.18"/>
          <circle cx="288" cy="294.9" r="5.75"/>
        </g>
        <g>
          <polygon class="cls-3" points="289.28 272.35 299.33 274.51 306.81 267.47 307.85 277.69 316.87 282.63 307.46 286.78 305.55 296.88 298.7 289.22 288.5 290.52 293.67 281.64 289.28 272.35"/>
          <circle cx="300.99" cy="281.73" r="5.75" transform="translate(-76.14 115.19) rotate(-19.28)"/>
        </g>
        <g>
          <polygon class="cls-3" points="322.99 262.83 314.29 268.3 313.86 278.57 305.97 271.98 296.07 274.74 299.9 265.2 294.21 256.64 304.46 257.33 310.85 249.28 313.36 259.25 322.99 262.83"/>
          <circle cx="308.06" cy="264.3" r="5.75" transform="translate(-65.66 422.69) rotate(-63.6)"/>
        </g>
        <g>
          <polygon class="cls-3" points="298.82 228.25 306.74 234.8 316.62 232 312.83 241.55 318.56 250.09 308.3 249.44 301.94 257.52 299.39 247.56 289.75 244.02 298.43 238.52 298.82 228.25"/>
          <circle cx="304.88" cy="241.97" r="5.75" transform="translate(22 509.33) rotate(-81.82)"/>
        </g>
        <g>
          <polygon class="cls-3" points="281.33 212.68 290.48 217.36 299.52 212.49 297.89 222.63 305.32 229.73 295.17 231.31 290.72 240.58 286.07 231.41 275.89 230.04 283.17 222.79 281.33 212.68"/>
          <circle cx="290.22" cy="224.76" r="5.75" transform="matrix(1, -0.08, 0.08, 1, -16.13, 22.54)"/>
        </g>
        <g>
          <polygon class="cls-3" points="261.66 201.68 271.23 205.44 279.74 199.69 279.13 209.95 287.23 216.27 277.28 218.86 273.77 228.51 268.24 219.85 257.96 219.5 264.5 211.56 261.66 201.68"/>
          <circle cx="271.7" cy="212.83" r="5.75" transform="translate(-32.88 50.51) rotate(-10.02)"/>
        </g>
        <g>
          <polygon class="cls-3" points="240.76 202.35 250.08 206.67 258.93 201.44 257.7 211.64 265.41 218.44 255.32 220.42 251.24 229.86 246.24 220.88 236.01 219.91 243 212.38 240.76 202.35"/>
          <circle cx="250.12" cy="214.07" r="5.75" transform="translate(-22.91 30.11) rotate(-6.59)"/>
        </g>
        <g>
          <polygon class="cls-3" points="220.97 215.34 230.94 217.83 238.64 211.03 239.35 221.28 248.21 226.51 238.68 230.35 236.44 240.39 229.84 232.51 219.61 233.49 225.06 224.77 220.97 215.34"/>
          <circle cx="232.37" cy="225.09" r="5.75" transform="translate(-56.8 80.02) rotate(-17.45)"/>
        </g>
        <g>
          <polygon class="cls-3" points="206.66 232.52 216.64 235.01 224.34 228.2 225.06 238.46 233.91 243.68 224.38 247.53 222.14 257.56 215.54 249.69 205.31 250.66 210.75 241.95 206.66 232.52"/>
          <circle cx="218.07" cy="242.27" r="5.75" transform="translate(-62.6 76.52) rotate(-17.45)"/>
        </g>
        <g>
          <polygon class="cls-3" points="205.12 253.93 215.1 256.42 222.8 249.62 223.51 259.87 232.37 265.1 222.84 268.94 220.6 278.98 214 271.1 203.76 272.07 209.21 263.36 205.12 253.93"/>
          <circle cx="216.52" cy="263.68" r="5.75" transform="translate(-69.09 77.05) rotate(-17.45)"/>
        </g>
        <g>
          <polygon class="cls-3" points="221.45 273.8 230.27 279.08 239.62 274.81 237.32 284.83 244.28 292.4 234.04 293.31 228.99 302.26 224.96 292.81 214.88 290.77 222.63 284.01 221.45 273.8"/>
          <circle cx="229.53" cy="286.45" r="5.75" transform="translate(-2.79 2.26) rotate(-0.56)"/>
        </g>
        <g>
          <polygon class="cls-3" points="242.61 286.86 250.41 293.56 260.35 290.94 256.38 300.42 261.95 309.06 251.71 308.22 245.21 316.19 242.84 306.18 233.26 302.46 242.04 297.12 242.61 286.86"/>
          <circle cx="248.43" cy="300.69" r="5.75" transform="matrix(0.16, -0.99, 0.99, 0.16, -88.17, 497.75)"/>
        </g>
        <g>
          <polygon class="cls-3" points="260.96 293.7 268.76 300.4 278.69 297.77 274.73 307.26 280.3 315.9 270.05 315.06 263.56 323.02 261.19 313.02 251.6 309.3 260.39 303.96 260.96 293.7"/>
          <circle cx="266.77" cy="307.53" r="5.75" transform="matrix(0.16, -0.99, 0.99, 0.16, -79.51, 521.61)"/>
        </g>
      </g>
    </symbol>
  </defs>
  <title>最適化_縮小OFF_SVG用_f-bloom_logo_ver06_text-outline</title>
  <g id="葉グループ">
    <use width="419.86" height="430" transform="matrix(0.04, -0.16, 0.16, 0.04, 74.85, 54.49)" xlink:href="#サイネリア葉_黒"/>
    <use width="419.86" height="430" transform="matrix(0.09, -0.13, 0.13, 0.1, 134.72, 47.63)" xlink:href="#サイネリア葉_黒"/>
    <use width="419.86" height="430" transform="matrix(-0.07, 0.15, -0.15, -0.07, 80.99, 182.21)" xlink:href="#サイネリア葉_黒"/>
  </g>
  <g id="花グループ">
    <use width="523.26" height="518.44" transform="matrix(0.22, 0, 0.06, 0.21, 78.04, 33.51)" xlink:href="#サイネリア花"/>
    <use width="523.26" height="518.44" transform="matrix(0.22, 0, -0.02, 0.21, 30.54, 112.52)" xlink:href="#サイネリア花"/>
    <use width="523.26" height="518.44" transform="matrix(-0.21, 0.01, -0.01, -0.21, 143.6, 145.34)" xlink:href="#サイネリア花"/>
  </g>
  <g>
    <path d="M275.92,233.53c-2.16,2.43-2.29,4.45-4.86,6.75q-6.07,5.26-11.74,10.93c-3.78,3.78-8,7.83-12.55,10.39a26.19,26.19,0,0,0-10.39,10.93,1.92,1.92,0,0,0-.27.81c0,1.75,3.1,3.51,4.59,3.51,2,0,10.12-1.75,12-2.7,1.75-.67,6.34-2.83,8.23-2.83a.78.78,0,0,1,.81.81c0,1.08-1.21,2-2.16,2.43-1.21.68-2.7.81-4,1.62s-2.83,2.56-4.86,2.56c-3,0-4.46.94-7,2.16-3,1.22-6.34-.94-7.56,3.65-1.08,3.78-1.89,7.83-4.18,10.93-2.16,2.83-8,12.55-10.39,13.9-2,1.35-3,1.35-4.73,3.38-2.43,3-3.37,3.38-7.29,4-1.48.13-3.1.54-4.59.54s-2.56-.54-2.56-2.29a14.52,14.52,0,0,1,3.24-9c1.75-2.16,2.16-5.53,4-7s2-3.78,3.65-4.72c2-1.08,2.83-4.86,4.59-6.07.94-.81,7.83-10.39,7.83-10.93,0-1.48-4.32-1.62-4.32-6.48,0-1.75.81-3.78,2.83-3.78a17.78,17.78,0,0,1,3.51.67c1.08.41,1.48.41,1.75.68l1.35,1.08a1.15,1.15,0,0,0,.67.41c1.21,0,6.34-8,8.91-8.77,1.75-.54,4.32-4.32,5.53-5.8,4.19-4.86,9.18-8.91,13.63-13.5,2.7-3,15.66-15.93,19.57-15.93a1.24,1.24,0,0,1,1.21,1.35C280.37,228.94,277.13,232.32,275.92,233.53ZM229.61,280c-2,0-10.93,14.58-13.23,16.87-1.89,1.89-2.83,4-4.32,6.07s-3.92,6.21-3.92,8.64c0,1.08.41,1.62,1.48,1.62,2.83,0,4.73-3.51,7.15-3.92,1.89-.27,3-2.57,4-3.92a23,23,0,0,1,2.56-2.56c3.51-3.51,5.13-7.69,6.61-12.42.4-1.48,2.16-6.21,2.16-7.56A2.72,2.72,0,0,0,229.61,280Z" transform="translate(-51 -112)"/>
    <path d="M276.19,281.59a3.73,3.73,0,0,1-6.88-2.29c0-1.08.54-2.16.54-3.51,0-.27-.13-.54-.13-.95,0-2.16,2.43-3.91,4.45-3.91,3,0,6.21,3.51,6.21,6.34C280.37,279.3,277,280.11,276.19,281.59Z" transform="translate(-51 -112)"/>
    <path d="M347.87,231.51c-1.48.67-1.89,2.29-3.24,3s-1.89,3.38-3.92,4.46c-1.48.81-3.64,3.1-5.13,3.1-.67,0-2.16,2.7-3.64,3.24s-3.37,3-4.59,3.24c-2.7.54-5.13,6.34-7.69,8.1-3.24,2.16-6.07,7.29-8.23,8.64-1.08.67-1.48,2.7-3,3.65s-2.16,2.7-3.51,3.91a3,3,0,0,0-.94,2.29c0,1.75.94,3,2.7,3s5.94-2.7,7.15-3.91c1.48-1.21,3.1-1.75,4.45-3s3.1-2.83,4.86-2.83a2.5,2.5,0,0,1,.95.27c4.32,2,.67,6.61,6.61,6.61,5.13,0,8-3.78,10.39-3.78a1,1,0,0,1,.94,1.08c0,1.21-3.51,2.7-4.46,3.24-1.89.94-3.37,2.56-5.67,2.56A18.91,18.91,0,0,1,326,277c-2.29-1.08-2.29-3.78-3.51-3.78s-2.16,1.62-3.51,2c-3.1.81-3.65,4.45-7.56,5.26-2.83.54-5.13,2.29-8,2.29a5.3,5.3,0,0,1-2.43-.54c-1.35-.67-4.18-2.43-4.18-4.19,0-2.83,2.7-4.59,3.78-7.15.94-2,5.94-4.73,5.94-6.75,0-.13-.14-.27-.27-.4s-1.62,1.35-2,1.48c-1.49.81-.81,1.48-2.56,2.43-1.21.68-2,1.89-3.1,2.7-1.89,1.35-6.88,5.4-9.18,5.4a2,2,0,0,1-1.21-.54l-.14-.41c0-.81,1.22-1.89,1.89-2.29a42.83,42.83,0,0,0,10.26-7.29c1.75-1.89,1.62-2.29,4-3.65s3.91-4,6.07-5.8,5.4-3.51,6.61-5.94c1.08-2,4.18-3.37,5.94-4.86a56.25,56.25,0,0,0,5.54-5.81c1.21-1.35,3.24-1.89,4.18-3.37,1.08-1.75,8.23-6.07,10.53-7.83a4.28,4.28,0,0,1,2.7-.81,3.21,3.21,0,0,1,3.1,3A1.42,1.42,0,0,1,347.87,231.51Z" transform="translate(-51 -112)"/>
    <path d="M385.53,240.82c-1.21,2.43-5.13,4.19-7.15,6.21-1.49,1.75-2.43,1.21-4.19,3.64a19,19,0,0,1-6.61,5.67c-1.62.81-2.56,2.7-4.45,3.65-2.16.94-3.1,3-5,4-1.75.81-4.18,1.89-4.18,4.18,0,1.89.94,3.78.94,5.8,0,.41-.14.81-.14,1.35,0,1.75,1.35,2.7,3.1,2.7a10.27,10.27,0,0,0,3.38-.81c2.16-.81,5.4-1.22,7.29-2.43,1.62-.94,3.65-1.21,5.13-2.29a7.11,7.11,0,0,1,3.24-1.08c.81,0,.95.41.95,1.08,0,1.89-5.13,3-6.61,3.92-1.75,1.21-4.59,1.62-6.75,3-3.1,1.75-5.26.81-6.88,1.75a2,2,0,0,1-1.21.27c-5.13,0-7.83-4.32-7.83-8.91a1.57,1.57,0,0,0-1.48-1.75c-2.29,0-7.15,4.32-10.26,4.86a9.92,9.92,0,0,1-1.89.54c-.41,0-1.08-.4-1.08-.81,0-.94,2.43-1.89,3.1-2.29,2-.94,3.51-2.56,5.67-3.37,1.89-.81,2.7-3.1,4.32-3.78,1.89-.81,4.19-4,5-5.8,1.21-2.7,3.78-4.86,5.26-7.42,1.21-2.16,3.38-3.64,4.72-5.8,1.48-2.7,4-4.59,6.34-6.48s4.46-4.73,7.56-5.54c4.45-1.35,3.51-5.67,10.8-5.67,2.16,0,3.24.54,3.24,2.83C389.85,238,387.56,236.64,385.53,240.82Zm-3.91-4a.67.67,0,0,0-.41-.13c-2.83.13-9.31,7.69-12.15,9.58-1.89,1.35-2.7,4.32-4.45,5.94a26.89,26.89,0,0,0-5.67,5.94,2.55,2.55,0,0,0-.54,1.21c0,.27,0,.41.14.41s.54-.14,1.75-1.08a10.22,10.22,0,0,1,1.75-1.35c1.35-.67,2-2.16,3-3.37s3.51-1.22,4.46-2.43c1.35-1.75,2.56-3.65,4.59-4.59s7.56-7.29,7.69-9.72C381.75,236.77,381.62,236.77,381.62,236.77Z" transform="translate(-51 -112)"/>
    <path d="M439.94,276.46c-3.64,0-6.61-2.16-8.77-2.16-2.7,0-3.92,3-6.34,3.51-4.32,1.08-3.37,5.13-11.07,5.13-5.67,0-6.08-4.32-10.26-4.86-1.62-.13-4.46-.67-5.53-2a4.69,4.69,0,0,0-3.51-2.16c-.94-.14-2-.94-3-.94s-3.24,3.91-4.86,5c-3.1,2.16-3.51,5-8.37,5-1.89,0-6.88-.81-6.88-3.24a5.75,5.75,0,0,1,.27-1.48c.54-1.35.81-3.92,2-4.72,1.35-1.08,2.29-2.7,3.65-3.78,2.16-1.62,4.86-2.7,6.88-4.45a9.06,9.06,0,0,1,5.4-2.16,17,17,0,0,1,3.64-.54,2.1,2.1,0,0,1,2.29,1.75c.54,1.08,2.16,4.59,2.16,5.4,0,3.51,6.21,5.4,8.91,5.4,3,0,5.94-4.86,8.23-6.34a53.35,53.35,0,0,0,5.8-3.78c1.35-1.21,2.84-3.1,4.59-3.51,1.48-.41,3-1.48,4.59-1.48s4.72,4.18,4.72,5.67c0,.95-.27,1.89-.27,3,0,2.56,3.51,4,5.67,4,4.86,0,8.77-3.65,10.93-3.65a.49.49,0,0,1,.54.54C451.41,272.41,442.37,276.46,439.94,276.46Zm-54.13-7a13,13,0,0,0-2.83.81c-1.62.27-5.4,5.94-5.4,7.42a1.19,1.19,0,0,0,1.21,1.08,1.64,1.64,0,0,0,1.35-.81,25.67,25.67,0,0,1,4.45-4,4.43,4.43,0,0,0,2-3.65C386.61,269.58,386.34,269.44,385.8,269.44Zm37.12,0c-3,0-4.59,2.7-6.62,4.32-.27.27-.94.81-.94,1.22,0,1.08,1.48,1.21,2.16,1.21,1.62,0,3.91-2,5.4-2.83a2.35,2.35,0,0,0,1.62-2.16A1.67,1.67,0,0,0,422.93,269.44Z" transform="translate(-51 -112)"/>
    <path d="M527.14,275.65c-4.32,1.75-9,5.4-13.91,5.4-.54,0-1.08-.14-1.62-.14-.81,0-1.49.27-2.29.27-3.24,0-5.54-2.83-5.54-6.07,0-1.89,1.08-3.24,1.08-3.91s-.95-.81-1.49-.81c-1.75,0-2.16,1.48-5,1.48-1.62,0-3.24,1.48-4.73,2.16a48.08,48.08,0,0,0-5.8,3.1c-1.75,1.08-2.16,4.19-4,4.46a2.63,2.63,0,0,1-1.08.13s-3.64-1.62-3.64-3.1c0-2.43,3.51-3.1,3.51-5.94,0-1.48-1.08-2.16-2.56-2.16a6.43,6.43,0,0,0-3.37,1.21,10,10,0,0,1-5.4,2.16,22.61,22.61,0,0,0-6.75,3.38c-1.21.94-3.11,3.78-4.72,3.78-.95,0-3.78-1.62-3.78-2.56a2.29,2.29,0,0,1,1.21-1.89c1.35-.81,2.7-5.26,2.7-6.61,0-1.08-.67-1.35-1.62-1.35-4,0-4.46,3-7.15,3.51-2.43.54-4.73,3.1-6.88,3.1-.67,0-1.35-.27-1.35-.95a2.08,2.08,0,0,1,1.21-1.75,27.62,27.62,0,0,0,4.19-2.7c3.1-2.16,8.37-7,12.28-7,1.35,0,.67.68,2,.95s4,.81,4,2.7c0,1.21-.81,2.43-.81,3.78,0,.68.41,1.08,1.21,1.08s1.62-.4,2.57-.4a13.64,13.64,0,0,1,2.43-1.22c2.56-1.35,4.72-4.18,7.83-4.32s4.45-2,6.48-2c1.62,0,5.67,1.75,5.67,3.65,0,.94-1.21,2.29-1.21,3.51,0,.41.13.54.54.54,2.43,0,8.1-4.45,11.47-5,2.16-.27,3.38-3.1,6.08-3.1,2.16,0,4.59,1.89,4.59,4.19s-4.18,4-4.18,9.18c0,1.35,1.75,1.49,3.51,1.49a9.05,9.05,0,0,0,5.26-1.35c1.89-1.08,4-1.21,5.8-2.29,1.21-.67,2.29-1.08,3.51-1.62a8.14,8.14,0,0,1,3-1.21c.54,0,1.21.4,1.21.94C531.6,273.76,528.09,275.25,527.14,275.65Z" transform="translate(-51 -112)"/>
  </g>
</svg>
